solid OpenSCAD_Model
  facet normal 1 -0 0
    outer loop
      vertex 50 234 7
      vertex 50 241 0
      vertex 50 241 7
    endloop
  endfacet
  facet normal 1 0 0
    outer loop
      vertex 50 241 0
      vertex 50 234 7
      vertex 50 234 0
    endloop
  endfacet
  facet normal 0 0 1
    outer loop
      vertex 50 241 7
      vertex 28 241 7
      vertex 50 234 7
    endloop
  endfacet
  facet normal 0 0 1
    outer loop
      vertex 122 241 7
      vertex 100 241 7
      vertex 122 234 7
    endloop
  endfacet
  facet normal -0 0 1
    outer loop
      vertex 75 109.457 7
      vertex 140 20.5426 7
      vertex 79.7141 117 7
    endloop
  endfacet
  facet normal 0 0 1
    outer loop
      vertex 70.2859 117 7
      vertex 79.7141 117 7
      vertex 75 124.543 7
    endloop
  endfacet
  facet normal 0 0 1
    outer loop
      vertex 140 20.5426 7
      vertex 75 109.457 7
      vertex 134.476 14.2953 7
    endloop
  endfacet
  facet normal 0 0 1
    outer loop
      vertex 79.7141 117 7
      vertex 70.2859 117 7
      vertex 75 109.457 7
    endloop
  endfacet
  facet normal -0 0 1
    outer loop
      vertex 10 213.457 7
      vertex 75 124.543 7
      vertex 15.5237 219.705 7
    endloop
  endfacet
  facet normal 0 0 1
    outer loop
      vertex 75 124.543 7
      vertex 10 213.457 7
      vertex 70.2859 117 7
    endloop
  endfacet
  facet normal 0 0 1
    outer loop
      vertex 150 234 7
      vertex 140 213.457 7
      vertex 150 0 7
    endloop
  endfacet
  facet normal 0 0 1
    outer loop
      vertex 150 234 7
      vertex 134.476 219.705 7
      vertex 140 213.457 7
    endloop
  endfacet
  facet normal -0 0 1
    outer loop
      vertex 133 224 7
      vertex 134.476 219.705 7
      vertex 150 234 7
    endloop
  endfacet
  facet normal -0 -0 1
    outer loop
      vertex 133.938 220.5 7
      vertex 134.476 219.705 7
      vertex 133 224 7
    endloop
  endfacet
  facet normal 0 0 1
    outer loop
      vertex 134.476 219.705 7
      vertex 133.938 220.5 7
      vertex 134.447 219.739 7
    endloop
  endfacet
  facet normal 0 0 1
    outer loop
      vertex 133.938 220.5 7
      vertex 133 224 7
      vertex 133.533 221.321 7
    endloop
  endfacet
  facet normal 0 0 1
    outer loop
      vertex 133.533 221.321 7
      vertex 133 224 7
      vertex 133.239 222.188 7
    endloop
  endfacet
  facet normal 0 0 1
    outer loop
      vertex 133.239 222.188 7
      vertex 133 224 7
      vertex 133.06 223.086 7
    endloop
  endfacet
  facet normal -0 0 1
    outer loop
      vertex 122 234 7
      vertex 133 224 7
      vertex 150 234 7
    endloop
  endfacet
  facet normal 0 0 1
    outer loop
      vertex 100 234 7
      vertex 122 234 7
      vertex 100 241 7
    endloop
  endfacet
  facet normal 0 0 1
    outer loop
      vertex 122 234 7
      vertex 100 234 7
      vertex 133 224 7
    endloop
  endfacet
  facet normal -0 0 1
    outer loop
      vertex 50 234 7
      vertex 133 224 7
      vertex 100 234 7
    endloop
  endfacet
  facet normal 0 0 1
    outer loop
      vertex 28 234 7
      vertex 50 234 7
      vertex 28 241 7
    endloop
  endfacet
  facet normal 0 0 1
    outer loop
      vertex 17 224 7
      vertex 50 234 7
      vertex 28 234 7
    endloop
  endfacet
  facet normal 0 0 1
    outer loop
      vertex 50 234 7
      vertex 17 224 7
      vertex 133 224 7
    endloop
  endfacet
  facet normal 0 0 1
    outer loop
      vertex 17 224 7
      vertex 16.7615 222.188 7
      vertex 16.9401 223.086 7
    endloop
  endfacet
  facet normal 0 0 1
    outer loop
      vertex 17 224 7
      vertex 16.4671 221.321 7
      vertex 16.7615 222.188 7
    endloop
  endfacet
  facet normal 0 0 1
    outer loop
      vertex 17 224 7
      vertex 16.0622 220.5 7
      vertex 16.4671 221.321 7
    endloop
  endfacet
  facet normal 0 0 1
    outer loop
      vertex 15.5237 219.705 7
      vertex 16.0622 220.5 7
      vertex 17 224 7
    endloop
  endfacet
  facet normal 0 0 1
    outer loop
      vertex 16.0622 220.5 7
      vertex 15.5237 219.705 7
      vertex 15.5535 219.739 7
    endloop
  endfacet
  facet normal 0 0 1
    outer loop
      vertex 0 234 7
      vertex 15.5237 219.705 7
      vertex 17 224 7
    endloop
  endfacet
  facet normal 0 0 1
    outer loop
      vertex 10 213.457 7
      vertex 0 234 7
      vertex 10 20.5426 7
    endloop
  endfacet
  facet normal 0 0 1
    outer loop
      vertex 15.5237 219.705 7
      vertex 0 234 7
      vertex 10 213.457 7
    endloop
  endfacet
  facet normal -0 0 1
    outer loop
      vertex 0 234 7
      vertex 17 224 7
      vertex 28 234 7
    endloop
  endfacet
  facet normal -0 0 1
    outer loop
      vertex 140 20.5426 7
      vertex 150 0 7
      vertex 140 213.457 7
    endloop
  endfacet
  facet normal -0 0 1
    outer loop
      vertex 134.476 14.2953 7
      vertex 150 0 7
      vertex 140 20.5426 7
    endloop
  endfacet
  facet normal 0 0 1
    outer loop
      vertex 133.938 13.5 7
      vertex 134.476 14.2953 7
      vertex 134.447 14.2613 7
    endloop
  endfacet
  facet normal 0 0 1
    outer loop
      vertex 134.476 14.2953 7
      vertex 133.938 13.5 7
      vertex 133 10 7
    endloop
  endfacet
  facet normal 0 0 1
    outer loop
      vertex 133 10 7
      vertex 133.938 13.5 7
      vertex 133.533 12.6788 7
    endloop
  endfacet
  facet normal 0 0 1
    outer loop
      vertex 133 10 7
      vertex 133.533 12.6788 7
      vertex 133.239 11.8117 7
    endloop
  endfacet
  facet normal 0 0 1
    outer loop
      vertex 133 10 7
      vertex 133.239 11.8117 7
      vertex 133.06 10.9137 7
    endloop
  endfacet
  facet normal 0 0 1
    outer loop
      vertex 134.476 14.2953 7
      vertex 133 10 7
      vertex 150 0 7
    endloop
  endfacet
  facet normal -0 0 1
    outer loop
      vertex 17 10 7
      vertex 150 0 7
      vertex 133 10 7
    endloop
  endfacet
  facet normal 0 0 1
    outer loop
      vertex 16.7615 11.8117 7
      vertex 17 10 7
      vertex 16.9401 10.9137 7
    endloop
  endfacet
  facet normal 0 0 1
    outer loop
      vertex 16.4671 12.6788 7
      vertex 17 10 7
      vertex 16.7615 11.8117 7
    endloop
  endfacet
  facet normal 0 0 1
    outer loop
      vertex 16.0622 13.5 7
      vertex 17 10 7
      vertex 16.4671 12.6788 7
    endloop
  endfacet
  facet normal 0 0 1
    outer loop
      vertex 15.5237 14.2953 7
      vertex 16.0622 13.5 7
      vertex 15.5535 14.2613 7
    endloop
  endfacet
  facet normal 0 0 1
    outer loop
      vertex 16.0622 13.5 7
      vertex 15.5237 14.2953 7
      vertex 17 10 7
    endloop
  endfacet
  facet normal 0 0 1
    outer loop
      vertex 0 0 7
      vertex 15.5237 14.2953 7
      vertex 10 20.5426 7
    endloop
  endfacet
  facet normal 0 0 1
    outer loop
      vertex 17 10 7
      vertex 0 0 7
      vertex 150 0 7
    endloop
  endfacet
  facet normal 0 0 1
    outer loop
      vertex 15.5237 14.2953 7
      vertex 0 0 7
      vertex 17 10 7
    endloop
  endfacet
  facet normal 0 0 1
    outer loop
      vertex 0 0 7
      vertex 10 20.5426 7
      vertex 0 234 7
    endloop
  endfacet
  facet normal 0 0 1
    outer loop
      vertex 75 124.543 7
      vertex 140 213.457 7
      vertex 134.476 219.705 7
    endloop
  endfacet
  facet normal 0 0 1
    outer loop
      vertex 140 213.457 7
      vertex 75 124.543 7
      vertex 79.7141 117 7
    endloop
  endfacet
  facet normal 0 0 1
    outer loop
      vertex 10 20.5426 7
      vertex 75 109.457 7
      vertex 70.2859 117 7
    endloop
  endfacet
  facet normal 0 0 1
    outer loop
      vertex 75 109.457 7
      vertex 10 20.5426 7
      vertex 15.5237 14.2953 7
    endloop
  endfacet
  facet normal 0 0 -1
    outer loop
      vertex 10 213.457 0
      vertex 75 124.543 0
      vertex 70.2859 117 0
    endloop
  endfacet
  facet normal 0 0 -1
    outer loop
      vertex 75 124.543 0
      vertex 10 213.457 0
      vertex 15.5237 219.705 0
    endloop
  endfacet
  facet normal -0 0 -1
    outer loop
      vertex 50 241 0
      vertex 28 234 0
      vertex 28 241 0
    endloop
  endfacet
  facet normal 0 0 -1
    outer loop
      vertex 75 124.543 0
      vertex 140 213.457 0
      vertex 79.7141 117 0
    endloop
  endfacet
  facet normal 0 0 -1
    outer loop
      vertex 70.2859 117 0
      vertex 79.7141 117 0
      vertex 75 109.457 0
    endloop
  endfacet
  facet normal -0 0 -1
    outer loop
      vertex 140 213.457 0
      vertex 75 124.543 0
      vertex 134.476 219.705 0
    endloop
  endfacet
  facet normal 0 0 -1
    outer loop
      vertex 79.7141 117 0
      vertex 70.2859 117 0
      vertex 75 124.543 0
    endloop
  endfacet
  facet normal 0 0 -1
    outer loop
      vertex 10 20.5426 0
      vertex 75 109.457 0
      vertex 15.5237 14.2953 0
    endloop
  endfacet
  facet normal -0 0 -1
    outer loop
      vertex 75 109.457 0
      vertex 10 20.5426 0
      vertex 70.2859 117 0
    endloop
  endfacet
  facet normal 0 0 -1
    outer loop
      vertex 150 0 0
      vertex 140 20.5426 0
      vertex 150 234 0
    endloop
  endfacet
  facet normal 0 0 -1
    outer loop
      vertex 150 0 0
      vertex 134.476 14.2953 0
      vertex 140 20.5426 0
    endloop
  endfacet
  facet normal 0 0 -1
    outer loop
      vertex 133 10 0
      vertex 134.476 14.2953 0
      vertex 150 0 0
    endloop
  endfacet
  facet normal 0 -0 -1
    outer loop
      vertex 133.938 13.5 0
      vertex 134.476 14.2953 0
      vertex 133 10 0
    endloop
  endfacet
  facet normal 0 0 -1
    outer loop
      vertex 134.476 14.2953 0
      vertex 133.938 13.5 0
      vertex 134.447 14.2613 0
    endloop
  endfacet
  facet normal 0 0 -1
    outer loop
      vertex 133.938 13.5 0
      vertex 133 10 0
      vertex 133.533 12.6788 0
    endloop
  endfacet
  facet normal 0 0 -1
    outer loop
      vertex 133.533 12.6788 0
      vertex 133 10 0
      vertex 133.239 11.8117 0
    endloop
  endfacet
  facet normal 0 0 -1
    outer loop
      vertex 133.239 11.8117 0
      vertex 133 10 0
      vertex 133.06 10.9137 0
    endloop
  endfacet
  facet normal 0 0 -1
    outer loop
      vertex 150 0 0
      vertex 17 10 0
      vertex 133 10 0
    endloop
  endfacet
  facet normal 0 0 -1
    outer loop
      vertex 17 10 0
      vertex 16.7615 11.8117 0
      vertex 16.9401 10.9137 0
    endloop
  endfacet
  facet normal 0 0 -1
    outer loop
      vertex 17 10 0
      vertex 16.4671 12.6788 0
      vertex 16.7615 11.8117 0
    endloop
  endfacet
  facet normal 0 0 -1
    outer loop
      vertex 17 10 0
      vertex 16.0622 13.5 0
      vertex 16.4671 12.6788 0
    endloop
  endfacet
  facet normal 0 0 -1
    outer loop
      vertex 15.5237 14.2953 0
      vertex 16.0622 13.5 0
      vertex 17 10 0
    endloop
  endfacet
  facet normal 0 0 -1
    outer loop
      vertex 16.0622 13.5 0
      vertex 15.5237 14.2953 0
      vertex 15.5535 14.2613 0
    endloop
  endfacet
  facet normal 0 0 -1
    outer loop
      vertex 0 0 0
      vertex 15.5237 14.2953 0
      vertex 17 10 0
    endloop
  endfacet
  facet normal -0 0 -1
    outer loop
      vertex 10 20.5426 0
      vertex 0 0 0
      vertex 10 213.457 0
    endloop
  endfacet
  facet normal -0 0 -1
    outer loop
      vertex 15.5237 14.2953 0
      vertex 0 0 0
      vertex 10 20.5426 0
    endloop
  endfacet
  facet normal 0 0 -1
    outer loop
      vertex 0 0 0
      vertex 17 10 0
      vertex 150 0 0
    endloop
  endfacet
  facet normal 0 0 -1
    outer loop
      vertex 140 213.457 0
      vertex 150 234 0
      vertex 140 20.5426 0
    endloop
  endfacet
  facet normal 0 0 -1
    outer loop
      vertex 134.476 219.705 0
      vertex 150 234 0
      vertex 140 213.457 0
    endloop
  endfacet
  facet normal 0 0 -1
    outer loop
      vertex 133.938 220.5 0
      vertex 134.476 219.705 0
      vertex 134.447 219.739 0
    endloop
  endfacet
  facet normal 0 0 -1
    outer loop
      vertex 134.476 219.705 0
      vertex 133.938 220.5 0
      vertex 133 224 0
    endloop
  endfacet
  facet normal 0 0 -1
    outer loop
      vertex 133 224 0
      vertex 133.938 220.5 0
      vertex 133.533 221.321 0
    endloop
  endfacet
  facet normal 0 0 -1
    outer loop
      vertex 133 224 0
      vertex 133.533 221.321 0
      vertex 133.239 222.188 0
    endloop
  endfacet
  facet normal 0 0 -1
    outer loop
      vertex 133 224 0
      vertex 133.239 222.188 0
      vertex 133.06 223.086 0
    endloop
  endfacet
  facet normal 0 0 -1
    outer loop
      vertex 134.476 219.705 0
      vertex 133 224 0
      vertex 150 234 0
    endloop
  endfacet
  facet normal 0 0 -1
    outer loop
      vertex 133 224 0
      vertex 122 234 0
      vertex 150 234 0
    endloop
  endfacet
  facet normal 0 0 -1
    outer loop
      vertex 122 234 0
      vertex 100 234 0
      vertex 122 241 0
    endloop
  endfacet
  facet normal 0 0 -1
    outer loop
      vertex 133 224 0
      vertex 100 234 0
      vertex 122 234 0
    endloop
  endfacet
  facet normal 0 0 -1
    outer loop
      vertex 133 224 0
      vertex 50 234 0
      vertex 100 234 0
    endloop
  endfacet
  facet normal 0 0 -1
    outer loop
      vertex 50 234 0
      vertex 28 234 0
      vertex 50 241 0
    endloop
  endfacet
  facet normal 0 0 -1
    outer loop
      vertex 17 224 0
      vertex 50 234 0
      vertex 133 224 0
    endloop
  endfacet
  facet normal -0 0 -1
    outer loop
      vertex 50 234 0
      vertex 17 224 0
      vertex 28 234 0
    endloop
  endfacet
  facet normal 0 0 -1
    outer loop
      vertex 16.7615 222.188 0
      vertex 17 224 0
      vertex 16.9401 223.086 0
    endloop
  endfacet
  facet normal 0 0 -1
    outer loop
      vertex 16.4671 221.321 0
      vertex 17 224 0
      vertex 16.7615 222.188 0
    endloop
  endfacet
  facet normal 0 0 -1
    outer loop
      vertex 16.0622 220.5 0
      vertex 17 224 0
      vertex 16.4671 221.321 0
    endloop
  endfacet
  facet normal 0 0 -1
    outer loop
      vertex 15.5237 219.705 0
      vertex 16.0622 220.5 0
      vertex 15.5535 219.739 0
    endloop
  endfacet
  facet normal -0 0 -1
    outer loop
      vertex 16.0622 220.5 0
      vertex 15.5237 219.705 0
      vertex 17 224 0
    endloop
  endfacet
  facet normal 0 0 -1
    outer loop
      vertex 0 234 0
      vertex 15.5237 219.705 0
      vertex 10 213.457 0
    endloop
  endfacet
  facet normal 0 0 -1
    outer loop
      vertex 17 224 0
      vertex 0 234 0
      vertex 28 234 0
    endloop
  endfacet
  facet normal 0 0 -1
    outer loop
      vertex 15.5237 219.705 0
      vertex 0 234 0
      vertex 17 224 0
    endloop
  endfacet
  facet normal 0 0 -1
    outer loop
      vertex 0 234 0
      vertex 10 213.457 0
      vertex 0 0 0
    endloop
  endfacet
  facet normal 0 0 -1
    outer loop
      vertex 75 109.457 0
      vertex 140 20.5426 0
      vertex 134.476 14.2953 0
    endloop
  endfacet
  facet normal 0 0 -1
    outer loop
      vertex 140 20.5426 0
      vertex 75 109.457 0
      vertex 79.7141 117 0
    endloop
  endfacet
  facet normal -0 0 -1
    outer loop
      vertex 122 241 0
      vertex 100 234 0
      vertex 100 241 0
    endloop
  endfacet
  facet normal -1 0 0
    outer loop
      vertex 28 234 0
      vertex 28 241 7
      vertex 28 241 0
    endloop
  endfacet
  facet normal -1 -0 0
    outer loop
      vertex 28 241 7
      vertex 28 234 0
      vertex 28 234 7
    endloop
  endfacet
  facet normal 0 1 -0
    outer loop
      vertex 50 241 0
      vertex 28 241 7
      vertex 50 241 7
    endloop
  endfacet
  facet normal 0 1 0
    outer loop
      vertex 28 241 7
      vertex 50 241 0
      vertex 28 241 0
    endloop
  endfacet
  facet normal 0 1 -0
    outer loop
      vertex 28 234 0
      vertex 0 234 7
      vertex 28 234 7
    endloop
  endfacet
  facet normal 0 1 0
    outer loop
      vertex 0 234 7
      vertex 28 234 0
      vertex 0 234 0
    endloop
  endfacet
  facet normal 0 1 -0
    outer loop
      vertex 100 234 0
      vertex 50 234 7
      vertex 100 234 7
    endloop
  endfacet
  facet normal 0 1 0
    outer loop
      vertex 50 234 7
      vertex 100 234 0
      vertex 50 234 0
    endloop
  endfacet
  facet normal 0 1 -0
    outer loop
      vertex 150 234 0
      vertex 122 234 7
      vertex 150 234 7
    endloop
  endfacet
  facet normal 0 1 0
    outer loop
      vertex 122 234 7
      vertex 150 234 0
      vertex 122 234 0
    endloop
  endfacet
  facet normal 1 -0 0
    outer loop
      vertex 122 234 7
      vertex 122 241 0
      vertex 122 241 7
    endloop
  endfacet
  facet normal 1 0 0
    outer loop
      vertex 122 241 0
      vertex 122 234 7
      vertex 122 234 0
    endloop
  endfacet
  facet normal -1 0 0
    outer loop
      vertex 100 234 0
      vertex 100 241 7
      vertex 100 241 0
    endloop
  endfacet
  facet normal -1 -0 0
    outer loop
      vertex 100 241 7
      vertex 100 234 0
      vertex 100 234 7
    endloop
  endfacet
  facet normal 0 1 -0
    outer loop
      vertex 122 241 0
      vertex 100 241 7
      vertex 122 241 7
    endloop
  endfacet
  facet normal 0 1 0
    outer loop
      vertex 100 241 7
      vertex 122 241 0
      vertex 100 241 0
    endloop
  endfacet
  facet normal -1 0 0
    outer loop
      vertex 0 0 0
      vertex 0 234 7
      vertex 0 234 0
    endloop
  endfacet
  facet normal -1 -0 0
    outer loop
      vertex 0 234 7
      vertex 0 0 0
      vertex 0 0 7
    endloop
  endfacet
  facet normal 0 -1 0
    outer loop
      vertex 0 0 0
      vertex 150 0 7
      vertex 0 0 7
    endloop
  endfacet
  facet normal 0 -1 -0
    outer loop
      vertex 150 0 7
      vertex 0 0 0
      vertex 150 0 0
    endloop
  endfacet
  facet normal 1 -0 0
    outer loop
      vertex 150 0 7
      vertex 150 234 0
      vertex 150 234 7
    endloop
  endfacet
  facet normal 1 0 0
    outer loop
      vertex 150 234 0
      vertex 150 0 7
      vertex 150 0 0
    endloop
  endfacet
  facet normal 0.752028 -0.659131 0
    outer loop
      vertex 15.5237 219.705 7
      vertex 15.5535 219.739 0
      vertex 15.5535 219.739 7
    endloop
  endfacet
  facet normal 0.752028 -0.659131 0
    outer loop
      vertex 15.5535 219.739 0
      vertex 15.5237 219.705 7
      vertex 15.5237 219.705 0
    endloop
  endfacet
  facet normal 0.831361 -0.555733 0
    outer loop
      vertex 15.5535 219.739 7
      vertex 16.0622 220.5 0
      vertex 16.0622 220.5 7
    endloop
  endfacet
  facet normal 0.831361 -0.555733 0
    outer loop
      vertex 16.0622 220.5 0
      vertex 15.5535 219.739 7
      vertex 15.5535 219.739 0
    endloop
  endfacet
  facet normal 0.896861 -0.442313 0
    outer loop
      vertex 16.0622 220.5 7
      vertex 16.4671 221.321 0
      vertex 16.4671 221.321 7
    endloop
  endfacet
  facet normal 0.896861 -0.442313 0
    outer loop
      vertex 16.4671 221.321 0
      vertex 16.0622 220.5 7
      vertex 16.0622 220.5 0
    endloop
  endfacet
  facet normal 0.946899 -0.321531 0
    outer loop
      vertex 16.4671 221.321 7
      vertex 16.7615 222.188 0
      vertex 16.7615 222.188 7
    endloop
  endfacet
  facet normal 0.946899 -0.321531 0
    outer loop
      vertex 16.7615 222.188 0
      vertex 16.4671 221.321 7
      vertex 16.4671 221.321 0
    endloop
  endfacet
  facet normal 0.98079 -0.195066 0
    outer loop
      vertex 16.7615 222.188 7
      vertex 16.9401 223.086 0
      vertex 16.9401 223.086 7
    endloop
  endfacet
  facet normal 0.98079 -0.195066 0
    outer loop
      vertex 16.9401 223.086 0
      vertex 16.7615 222.188 7
      vertex 16.7615 222.188 0
    endloop
  endfacet
  facet normal 0.997859 -0.0653958 0
    outer loop
      vertex 16.9401 223.086 7
      vertex 17 224 0
      vertex 17 224 7
    endloop
  endfacet
  facet normal 0.997859 -0.0653958 0
    outer loop
      vertex 17 224 0
      vertex 16.9401 223.086 7
      vertex 16.9401 223.086 0
    endloop
  endfacet
  facet normal 0 -1 0
    outer loop
      vertex 17 224 0
      vertex 133 224 7
      vertex 17 224 7
    endloop
  endfacet
  facet normal 0 -1 -0
    outer loop
      vertex 133 224 7
      vertex 17 224 0
      vertex 133 224 0
    endloop
  endfacet
  facet normal -0.997852 -0.0655045 0
    outer loop
      vertex 133.06 223.086 0
      vertex 133 224 7
      vertex 133 224 0
    endloop
  endfacet
  facet normal -0.997852 -0.0655045 0
    outer loop
      vertex 133 224 7
      vertex 133.06 223.086 0
      vertex 133.06 223.086 7
    endloop
  endfacet
  facet normal -0.980706 -0.195486 0
    outer loop
      vertex 133.239 222.188 0
      vertex 133.06 223.086 7
      vertex 133.06 223.086 0
    endloop
  endfacet
  facet normal -0.980706 -0.195486 0
    outer loop
      vertex 133.06 223.086 7
      vertex 133.239 222.188 0
      vertex 133.239 222.188 7
    endloop
  endfacet
  facet normal -0.947032 -0.321139 0
    outer loop
      vertex 133.533 221.321 0
      vertex 133.239 222.188 7
      vertex 133.239 222.188 0
    endloop
  endfacet
  facet normal -0.947032 -0.321139 0
    outer loop
      vertex 133.239 222.188 7
      vertex 133.533 221.321 0
      vertex 133.533 221.321 7
    endloop
  endfacet
  facet normal -0.896817 -0.442401 0
    outer loop
      vertex 133.938 220.5 0
      vertex 133.533 221.321 7
      vertex 133.533 221.321 0
    endloop
  endfacet
  facet normal -0.896817 -0.442401 0
    outer loop
      vertex 133.533 221.321 7
      vertex 133.938 220.5 0
      vertex 133.938 220.5 7
    endloop
  endfacet
  facet normal -0.831209 -0.55596 0
    outer loop
      vertex 134.447 219.739 0
      vertex 133.938 220.5 7
      vertex 133.938 220.5 0
    endloop
  endfacet
  facet normal -0.831209 -0.55596 0
    outer loop
      vertex 133.938 220.5 7
      vertex 134.447 219.739 0
      vertex 134.447 219.739 7
    endloop
  endfacet
  facet normal -0.760834 -0.648947 0
    outer loop
      vertex 134.476 219.705 0
      vertex 134.447 219.739 7
      vertex 134.447 219.739 0
    endloop
  endfacet
  facet normal -0.760834 -0.648947 0
    outer loop
      vertex 134.447 219.739 7
      vertex 134.476 219.705 0
      vertex 134.476 219.705 7
    endloop
  endfacet
  facet normal -0.847999 0.529997 0
    outer loop
      vertex 75 124.543 0
      vertex 134.476 219.705 7
      vertex 134.476 219.705 0
    endloop
  endfacet
  facet normal -0.847999 0.529997 0
    outer loop
      vertex 134.476 219.705 7
      vertex 75 124.543 0
      vertex 75 124.543 7
    endloop
  endfacet
  facet normal 0.847998 0.529999 0
    outer loop
      vertex 75 124.543 7
      vertex 15.5237 219.705 0
      vertex 15.5237 219.705 7
    endloop
  endfacet
  facet normal 0.847998 0.529999 0
    outer loop
      vertex 15.5237 219.705 0
      vertex 75 124.543 7
      vertex 75 124.543 0
    endloop
  endfacet
  facet normal 0.847997 -0.530001 0
    outer loop
      vertex 79.7141 117 7
      vertex 140 213.457 0
      vertex 140 213.457 7
    endloop
  endfacet
  facet normal 0.847997 -0.530001 0
    outer loop
      vertex 140 213.457 0
      vertex 79.7141 117 7
      vertex 79.7141 117 0
    endloop
  endfacet
  facet normal -1 0 0
    outer loop
      vertex 140 20.5426 0
      vertex 140 213.457 7
      vertex 140 213.457 0
    endloop
  endfacet
  facet normal -1 -0 0
    outer loop
      vertex 140 213.457 7
      vertex 140 20.5426 0
      vertex 140 20.5426 7
    endloop
  endfacet
  facet normal 0.847998 0.529999 0
    outer loop
      vertex 140 20.5426 7
      vertex 79.7141 117 0
      vertex 79.7141 117 7
    endloop
  endfacet
  facet normal 0.847998 0.529999 0
    outer loop
      vertex 79.7141 117 0
      vertex 140 20.5426 7
      vertex 140 20.5426 0
    endloop
  endfacet
  facet normal -0.847997 -0.530001 0
    outer loop
      vertex 70.2859 117 0
      vertex 10 213.457 7
      vertex 10 213.457 0
    endloop
  endfacet
  facet normal -0.847997 -0.530001 0
    outer loop
      vertex 10 213.457 7
      vertex 70.2859 117 0
      vertex 70.2859 117 7
    endloop
  endfacet
  facet normal -0.847998 0.529999 0
    outer loop
      vertex 10 20.5426 0
      vertex 70.2859 117 7
      vertex 70.2859 117 0
    endloop
  endfacet
  facet normal -0.847998 0.529999 0
    outer loop
      vertex 70.2859 117 7
      vertex 10 20.5426 0
      vertex 10 20.5426 7
    endloop
  endfacet
  facet normal 1 -0 0
    outer loop
      vertex 10 20.5426 7
      vertex 10 213.457 0
      vertex 10 213.457 7
    endloop
  endfacet
  facet normal 1 0 0
    outer loop
      vertex 10 213.457 0
      vertex 10 20.5426 7
      vertex 10 20.5426 0
    endloop
  endfacet
  facet normal 0.98079 0.195066 0
    outer loop
      vertex 16.9401 10.9137 7
      vertex 16.7615 11.8117 0
      vertex 16.7615 11.8117 7
    endloop
  endfacet
  facet normal 0.98079 0.195066 0
    outer loop
      vertex 16.7615 11.8117 0
      vertex 16.9401 10.9137 7
      vertex 16.9401 10.9137 0
    endloop
  endfacet
  facet normal 0.94691 0.321497 0
    outer loop
      vertex 16.7615 11.8117 7
      vertex 16.4671 12.6788 0
      vertex 16.4671 12.6788 7
    endloop
  endfacet
  facet normal 0.94691 0.321497 0
    outer loop
      vertex 16.4671 12.6788 0
      vertex 16.7615 11.8117 7
      vertex 16.7615 11.8117 0
    endloop
  endfacet
  facet normal 0.896904 0.442226 0
    outer loop
      vertex 16.4671 12.6788 7
      vertex 16.0622 13.5 0
      vertex 16.0622 13.5 7
    endloop
  endfacet
  facet normal 0.896904 0.442226 0
    outer loop
      vertex 16.0622 13.5 0
      vertex 16.4671 12.6788 7
      vertex 16.4671 12.6788 0
    endloop
  endfacet
  facet normal 0.831462 0.555582 0
    outer loop
      vertex 16.0622 13.5 7
      vertex 15.5535 14.2613 0
      vertex 15.5535 14.2613 7
    endloop
  endfacet
  facet normal 0.831462 0.555582 0
    outer loop
      vertex 15.5535 14.2613 0
      vertex 16.0622 13.5 7
      vertex 16.0622 13.5 0
    endloop
  endfacet
  facet normal 0.752028 0.659131 0
    outer loop
      vertex 15.5535 14.2613 7
      vertex 15.5237 14.2953 0
      vertex 15.5237 14.2953 7
    endloop
  endfacet
  facet normal 0.752028 0.659131 0
    outer loop
      vertex 15.5237 14.2953 0
      vertex 15.5535 14.2613 7
      vertex 15.5535 14.2613 0
    endloop
  endfacet
  facet normal 0.847997 -0.53 0
    outer loop
      vertex 15.5237 14.2953 7
      vertex 75 109.457 0
      vertex 75 109.457 7
    endloop
  endfacet
  facet normal 0.847997 -0.53 0
    outer loop
      vertex 75 109.457 0
      vertex 15.5237 14.2953 7
      vertex 15.5237 14.2953 0
    endloop
  endfacet
  facet normal -0.847999 -0.529999 0
    outer loop
      vertex 134.476 14.2953 0
      vertex 75 109.457 7
      vertex 75 109.457 0
    endloop
  endfacet
  facet normal -0.847999 -0.529999 0
    outer loop
      vertex 75 109.457 7
      vertex 134.476 14.2953 0
      vertex 134.476 14.2953 7
    endloop
  endfacet
  facet normal -0.760834 0.648947 0
    outer loop
      vertex 134.447 14.2613 0
      vertex 134.476 14.2953 7
      vertex 134.476 14.2953 0
    endloop
  endfacet
  facet normal -0.760834 0.648947 0
    outer loop
      vertex 134.476 14.2953 7
      vertex 134.447 14.2613 0
      vertex 134.447 14.2613 7
    endloop
  endfacet
  facet normal -0.83131 0.555808 0
    outer loop
      vertex 133.938 13.5 0
      vertex 134.447 14.2613 7
      vertex 134.447 14.2613 0
    endloop
  endfacet
  facet normal -0.83131 0.555808 0
    outer loop
      vertex 134.447 14.2613 7
      vertex 133.938 13.5 0
      vertex 133.938 13.5 7
    endloop
  endfacet
  facet normal -0.89686 0.442314 0
    outer loop
      vertex 133.533 12.6788 0
      vertex 133.938 13.5 7
      vertex 133.938 13.5 0
    endloop
  endfacet
  facet normal -0.89686 0.442314 0
    outer loop
      vertex 133.938 13.5 7
      vertex 133.533 12.6788 0
      vertex 133.533 12.6788 7
    endloop
  endfacet
  facet normal -0.947043 0.321106 0
    outer loop
      vertex 133.239 11.8117 0
      vertex 133.533 12.6788 7
      vertex 133.533 12.6788 0
    endloop
  endfacet
  facet normal -0.947043 0.321106 0
    outer loop
      vertex 133.533 12.6788 7
      vertex 133.239 11.8117 0
      vertex 133.239 11.8117 7
    endloop
  endfacet
  facet normal -0.980706 0.195486 0
    outer loop
      vertex 133.06 10.9137 0
      vertex 133.239 11.8117 7
      vertex 133.239 11.8117 0
    endloop
  endfacet
  facet normal -0.980706 0.195486 0
    outer loop
      vertex 133.239 11.8117 7
      vertex 133.06 10.9137 0
      vertex 133.06 10.9137 7
    endloop
  endfacet
  facet normal -0.997851 0.0655259 0
    outer loop
      vertex 133 10 0
      vertex 133.06 10.9137 7
      vertex 133.06 10.9137 0
    endloop
  endfacet
  facet normal -0.997851 0.0655259 0
    outer loop
      vertex 133.06 10.9137 7
      vertex 133 10 0
      vertex 133 10 7
    endloop
  endfacet
  facet normal 0 1 -0
    outer loop
      vertex 133 10 0
      vertex 17 10 7
      vertex 133 10 7
    endloop
  endfacet
  facet normal 0 1 0
    outer loop
      vertex 17 10 7
      vertex 133 10 0
      vertex 17 10 0
    endloop
  endfacet
  facet normal 0.997858 0.0654172 0
    outer loop
      vertex 17 10 7
      vertex 16.9401 10.9137 0
      vertex 16.9401 10.9137 7
    endloop
  endfacet
  facet normal 0.997858 0.0654172 0
    outer loop
      vertex 16.9401 10.9137 0
      vertex 17 10 7
      vertex 17 10 0
    endloop
  endfacet
endsolid OpenSCAD_Model
