solid OpenSCAD_Model
  facet normal 1 0 0
    outer loop
      vertex 30 2.3 10.5
      vertex 30 1.5 9.5
      vertex 30 2.3 9.5
    endloop
  endfacet
  facet normal 1 0 0
    outer loop
      vertex 30 1.5 9.5
      vertex 30 0 10.5
      vertex 30 1.5 2.5
    endloop
  endfacet
  facet normal 1 -0 0
    outer loop
      vertex 30 0 10.5
      vertex 30 1.5 9.5
      vertex 30 2.3 10.5
    endloop
  endfacet
  facet normal 1 0 0
    outer loop
      vertex 30 8.5 2.5
      vertex 30 10 10.5
      vertex 30 8.5 9.5
    endloop
  endfacet
  facet normal 1 -0 0
    outer loop
      vertex 30 7.7 10.5
      vertex 30 8.5 9.5
      vertex 30 10 10.5
    endloop
  endfacet
  facet normal 1 0 0
    outer loop
      vertex 30 8.5 9.5
      vertex 30 7.7 10.5
      vertex 30 7.7 9.5
    endloop
  endfacet
  facet normal 1 0 0
    outer loop
      vertex 30 10 10.5
      vertex 30 8.5 2.5
      vertex 30 10 0
    endloop
  endfacet
  facet normal 1 -0 0
    outer loop
      vertex 30 1.5 2.5
      vertex 30 10 0
      vertex 30 8.5 2.5
    endloop
  endfacet
  facet normal 1 0 0
    outer loop
      vertex 30 1.5 2.5
      vertex 30 0 0
      vertex 30 10 0
    endloop
  endfacet
  facet normal 1 0 0
    outer loop
      vertex 30 0 0
      vertex 30 1.5 2.5
      vertex 30 0 10.5
    endloop
  endfacet
  facet normal -0 0 1
    outer loop
      vertex 0 8.5 2.5
      vertex 30 1.5 2.5
      vertex 30 8.5 2.5
    endloop
  endfacet
  facet normal 0 0 1
    outer loop
      vertex 30 1.5 2.5
      vertex 0 8.5 2.5
      vertex 0 1.5 2.5
    endloop
  endfacet
  facet normal 0 0 -1
    outer loop
      vertex 0 0 0
      vertex 30 10 0
      vertex 30 0 0
    endloop
  endfacet
  facet normal -0 0 -1
    outer loop
      vertex 30 10 0
      vertex 0 0 0
      vertex 0 10 0
    endloop
  endfacet
  facet normal -1 0 0
    outer loop
      vertex 0 10 0
      vertex 0 8.5 2.5
      vertex 0 10 10.5
    endloop
  endfacet
  facet normal -1 0 0
    outer loop
      vertex 0 10 0
      vertex 0 1.5 2.5
      vertex 0 8.5 2.5
    endloop
  endfacet
  facet normal -1 0 0
    outer loop
      vertex 0 0 10.5
      vertex 0 1.5 2.5
      vertex 0 0 0
    endloop
  endfacet
  facet normal -1 0 0
    outer loop
      vertex 0 0 0
      vertex 0 1.5 2.5
      vertex 0 10 0
    endloop
  endfacet
  facet normal -1 0 0
    outer loop
      vertex 0 8.5 9.5
      vertex 0 10 10.5
      vertex 0 8.5 2.5
    endloop
  endfacet
  facet normal -1 0 0
    outer loop
      vertex 0 7.7 10.5
      vertex 0 8.5 9.5
      vertex 0 7.7 9.5
    endloop
  endfacet
  facet normal -1 0 0
    outer loop
      vertex 0 8.5 9.5
      vertex 0 7.7 10.5
      vertex 0 10 10.5
    endloop
  endfacet
  facet normal -1 0 0
    outer loop
      vertex 0 1.5 9.5
      vertex 0 2.3 10.5
      vertex 0 2.3 9.5
    endloop
  endfacet
  facet normal -1 0 0
    outer loop
      vertex 0 1.5 9.5
      vertex 0 0 10.5
      vertex 0 2.3 10.5
    endloop
  endfacet
  facet normal -1 0 0
    outer loop
      vertex 0 1.5 2.5
      vertex 0 0 10.5
      vertex 0 1.5 9.5
    endloop
  endfacet
  facet normal 0 1 -0
    outer loop
      vertex 30 10 0
      vertex 0 10 10.5
      vertex 30 10 10.5
    endloop
  endfacet
  facet normal 0 1 0
    outer loop
      vertex 0 10 10.5
      vertex 30 10 0
      vertex 0 10 0
    endloop
  endfacet
  facet normal 0 -1 0
    outer loop
      vertex 0 0 0
      vertex 30 0 10.5
      vertex 0 0 10.5
    endloop
  endfacet
  facet normal 0 -1 -0
    outer loop
      vertex 30 0 10.5
      vertex 0 0 0
      vertex 30 0 0
    endloop
  endfacet
  facet normal -0 0 1
    outer loop
      vertex 0 2.3 10.5
      vertex 30 0 10.5
      vertex 30 2.3 10.5
    endloop
  endfacet
  facet normal 0 0 1
    outer loop
      vertex 30 0 10.5
      vertex 0 2.3 10.5
      vertex 0 0 10.5
    endloop
  endfacet
  facet normal 0 1 -0
    outer loop
      vertex 30 1.5 2.5
      vertex 0 1.5 9.5
      vertex 30 1.5 9.5
    endloop
  endfacet
  facet normal 0 1 0
    outer loop
      vertex 0 1.5 9.5
      vertex 30 1.5 2.5
      vertex 0 1.5 2.5
    endloop
  endfacet
  facet normal -0 0 1
    outer loop
      vertex 0 10 10.5
      vertex 30 7.7 10.5
      vertex 30 10 10.5
    endloop
  endfacet
  facet normal 0 0 1
    outer loop
      vertex 30 7.7 10.5
      vertex 0 10 10.5
      vertex 0 7.7 10.5
    endloop
  endfacet
  facet normal 0 -1 0
    outer loop
      vertex 0 8.5 2.5
      vertex 30 8.5 9.5
      vertex 0 8.5 9.5
    endloop
  endfacet
  facet normal 0 -1 -0
    outer loop
      vertex 30 8.5 9.5
      vertex 0 8.5 2.5
      vertex 30 8.5 2.5
    endloop
  endfacet
  facet normal 0 0 -1
    outer loop
      vertex 0 1.5 9.5
      vertex 30 2.3 9.5
      vertex 30 1.5 9.5
    endloop
  endfacet
  facet normal -0 0 -1
    outer loop
      vertex 30 2.3 9.5
      vertex 0 1.5 9.5
      vertex 0 2.3 9.5
    endloop
  endfacet
  facet normal 0 1 -0
    outer loop
      vertex 30 2.3 9.5
      vertex 0 2.3 10.5
      vertex 30 2.3 10.5
    endloop
  endfacet
  facet normal 0 1 0
    outer loop
      vertex 0 2.3 10.5
      vertex 30 2.3 9.5
      vertex 0 2.3 9.5
    endloop
  endfacet
  facet normal 0 0 -1
    outer loop
      vertex 0 7.7 9.5
      vertex 30 8.5 9.5
      vertex 30 7.7 9.5
    endloop
  endfacet
  facet normal -0 0 -1
    outer loop
      vertex 30 8.5 9.5
      vertex 0 7.7 9.5
      vertex 0 8.5 9.5
    endloop
  endfacet
  facet normal 0 -1 0
    outer loop
      vertex 0 7.7 9.5
      vertex 30 7.7 10.5
      vertex 0 7.7 10.5
    endloop
  endfacet
  facet normal 0 -1 -0
    outer loop
      vertex 30 7.7 10.5
      vertex 0 7.7 9.5
      vertex 30 7.7 9.5
    endloop
  endfacet
endsolid OpenSCAD_Model
